<?xml version="1.0" encoding="UTF-8"?>
<svg id="Layer_1" xmlns="http://www.w3.org/2000/svg" version="1.1" viewBox="0 0 920.71 572.9">
  <!-- Generator: Adobe Illustrator 29.3.0, SVG Export Plug-In . SVG Version: 2.1.0 Build 146)  -->
  <defs>
    <style>
      .st0 {
        fill: none;
      }

      .st1 {
        fill: #fff;
      }
    </style>
  </defs>
  <rect class="st0" x="-.17" y="-.12" width="920.49" height="572.73"/>
  <g>
    <path class="st1" d="M147.99,251.42c-40.38,0-61.57,19.19-73.56,39.18h-4v-33.58h-29.99v275.07h30.78v-112.75h4c11.19,19.19,32.38,38.38,72.76,38.38,51.18,0,92.36-40.38,92.36-103.15s-41.18-103.15-92.36-103.15ZM140.39,430.54c-40.38,0-69.57-29.19-69.57-75.96s29.18-76.37,69.57-76.37,68.77,29.19,68.77,76.37-27.99,75.96-68.77,75.96Z"/>
    <rect class="st1" x="255.93" y="257.02" width="30.79" height="195.11"/>
    <path class="st1" d="M401.85,251.42c-59.17,0-99.55,41.58-99.55,103.15s40.38,103.15,99.55,103.15,99.95-41.98,99.95-103.15-40.78-103.15-99.95-103.15ZM401.85,430.54c-41.58,0-69.17-29.59-69.17-75.96s27.59-75.97,69.17-75.97,69.17,30.39,69.17,75.97-27.59,75.96-69.17,75.96Z"/>
    <path class="st1" d="M620.53,253.02c-40.38,0-59.97,18.39-69.17,36.78h-4v-32.78h-29.99v195.11h30.79v-98.75c0-48.78,26.79-73.96,64.37-73.96,33.58,0,54.77,17.19,54.77,56.37v116.34h30.39v-118.34c0-52.38-34.38-80.76-77.16-80.76Z"/>
    <path class="st1" d="M809.62,340.18l-19.99-2.8c-23.19-4-39.98-11.99-39.98-30.79s16.79-30.38,43.58-30.38,45.98,11.19,51.58,39.98l28.39-7.6c-7.99-35.98-35.98-57.17-79.96-57.17s-73.96,21.19-73.96,55.97,28.79,50.38,65.57,56.37l19.99,2.8c28.39,4.8,45.18,12.79,45.18,32.38s-18.79,33.98-48.77,33.98-55.57-12.39-61.97-52.38l-29.19,6.8c7.2,48.38,42.78,70.37,91.16,70.37s78.76-22.39,78.76-60.37-30.39-50.38-70.37-57.17Z"/>
    <path class="st1" d="M270.09,173.61c-11.03,0-19.97,8.94-19.97,19.97s8.94,19.97,19.97,19.97,19.97-8.94,19.97-19.97-8.94-19.97-19.97-19.97Z"/>
    <path class="st1" d="M270.09,106.9c-11.03,0-19.97,8.94-19.97,19.97s8.94,19.97,19.97,19.97,19.97-8.94,19.97-19.97-8.94-19.97-19.97-19.97Z"/>
    <path class="st1" d="M270.09,40.19c-11.03,0-19.97,8.94-19.97,19.97s8.94,19.97,19.97,19.97,19.97-8.94,19.97-19.97-8.94-19.97-19.97-19.97Z"/>
  </g>
</svg>